inDegrees=yes
name=ik_example_filtered_mov
DataType=double
version=3
OpenSimVersion=4.5
endheader
time	pelvis_tilt	pelvis_list	pelvis_rotation	pelvis_tx	pelvis_ty	pelvis_tz	hip_flexion_r	hip_adduction_r	hip_rotation_r	knee_angle_r	knee_angle_r_beta	ankle_angle_r	subtalar_angle_r	mtp_angle_r	hip_flexion_l	hip_adduction_l	hip_rotation_l	knee_angle_l	knee_angle_l_beta	ankle_angle_l	subtalar_angle_l	mtp_angle_l	lumbar_extension	lumbar_bending	lumbar_rotation	arm_flex_r	arm_add_r	arm_rot_r	elbow_flex_r	pro_sup_r	wrist_flex_r	wrist_dev_r	arm_flex_l	arm_add_l	arm_rot_l	elbow_flex_l	pro_sup_l	wrist_flex_l	wrist_dev_l
5.355111360549927	-3.857358970229668e-12	4.126693443279828e-12	-8.53615720131977e-12	-1.85554878572732e-19	0.93	5.655416343517108e-20	16.7425274356251	-4.587891518631438	3.826106760832186	23.89001213578627	0.4169593701109063	-4.951987186359821	5.21863100477206e-21	8.855445994193137e-22	2.868889736454061e-28	-2.567558417710659e-23	2.695324492963521e-42	2.277816302471041e-16	3.975539425310907e-18	1.454200511932566e-18	-5.209401400994786e-21	4.046465946448572e-21	-2.504003388744747e-18	0	-2.535856913761997e-17	5.820700328810897e-25	3.788267553883354e-19	2.045340107776937e-17	2.27781455182176e-16	2.277814975517279e-16	1.810734121580445e-20	-1.597492266990436e-24	-1.604420514313966e-17	4.330777173873208e-22	1.868014482100868e-19	2.277813724420746e-16	2.277817012642335e-16	7.932063599000317e-21	5.2583367148427e-24
5.364427804946899	-7.827481034602586e-14	2.593889370792196e-26	1.024625532388158e-25	1.138934754079367e-17	0.93	1.659161130683964e-19	16.43461797380539	-4.523312083197375	3.891218573554657	23.51415236510303	0.4103993795866597	-4.95209953236238	8.668054003171772e-17	1.123929692442398e-17	-6.500680886099056e-16	2.725890813863205e-15	2.732274144311443e-14	0	1.02538617767039e-15	-3.41516596286307e-16	2.072322726875336e-16	-7.076387329509602e-17	-1.996806657650986e-14	3.012498289814291e-14	-1.974871394057779e-14	1.210520015623693e-16	1.182553615180288e-16	7.512694891095029e-17	0	0	-1.846285408840867e-24	-5.276447754485423e-19	3.52171949098666e-16	2.251126245771989e-16	1.359809448418789e-16	0	0	-1.092287993219367e-23	1.214726029297851e-18
5.371382474899292	-7.827481034603109e-14	-7.694588731380758e-22	-3.311809850131161e-28	3.506401080530184e-23	0.93	-6.625783326592755e-23	16.15994367239452	-4.4581536159014	3.955731121911607	23.17074740218066	0.4044058323159753	-4.952209645689734	2.814409817963958e-17	1.174930074637535e-16	1.402163691612851e-35	-3.858830018294538e-25	-5.330924763437427e-39	6.16954060254221e-16	1.076787968480669e-17	-1.397339042129938e-16	-3.904747771974311e-17	-1.420138077319638e-16	-8.81085755460734e-29	-1.563108192684538e-17	1.704832332376713e-17	2.462013062111994e-21	-2.875652005701978e-18	9.621705854245698e-17	6.169317724861241e-16	6.169922868179779e-16	-4.593095939789569e-21	-1.86405810053841e-20	-4.794851999271745e-16	-5.436885595180235e-17	1.824903647805665e-16	6.169486378835728e-16	6.169542495321029e-16	-2.795317507385699e-21	2.718284027187228e-20
5.383680820465088	-2.715459733657788e-12	2.024843593785049e-11	-4.81582726502391e-12	-1.953542292496479e-12	0.93	-2.158317078971679e-14	15.91694546235949	-4.392511636410427	4.019612494356618	22.85813941600642	0.3989497936892403	-4.952322325058202	5.938860434859694e-19	1.862470518606807e-17	2.490626611006077e-22	-9.726205456129265e-14	8.174621700057007e-44	1.138698721866881e-06	1.987404185956315e-08	-1.496182925097878e-19	-3.004533681881706e-18	1.316399122006143e-18	-2.123242736859647e-12	-4.312542018678678e-32	9.387772808774943e-13	-5.879546873513307e-15	-1.371196008467133e-21	3.144396263518874e-17	1.137531008650818e-06	1.13870093279736e-06	6.901153113699892e-10	-5.518375567491243e-12	-1.886680804093927e-18	1.291209949699215e-16	-4.524113093002639e-17	1.138694990854101e-06	1.138698281024418e-06	1.058294355275072e-10	-2.682420329929666e-12
5.396658897399902	-7.827481034603263e-14	2.129258677630593e-18	2.944357576998815e-27	-2.529257082845028e-20	0.93	-1.75799229440571e-19	15.70052973876598	-4.325464565908166	4.082160644277101	22.57026348649761	0.393925410882038	-4.952436058127865	3.189202157150242e-16	1.862431376596641e-16	-5.161694871635594e-29	1.52303357494066e-18	1.146229208704825e-50	3.984283759746732e-16	6.953886994121045e-18	-2.088347714641923e-16	-4.989829372777699e-17	-4.570369513008643e-16	-3.783341008230891e-20	3.41129523827841e-34	-2.859491903670942e-18	2.564580290198665e-26	2.921889642106197e-17	4.037812680464184e-16	3.984259160732896e-16	3.984276932853068e-16	9.643440252630125e-19	-2.254555375825073e-17	6.759290788536597e-16	-2.358363094559581e-17	-4.613767927392855e-16	3.984283082151467e-16	3.983308001659707e-16	-8.151496432858258e-18	1.125521114270413e-16
5.403165340423584	-7.827481034603108e-14	0	0	0	0.93	0	15.51114299791894	-4.257714242628975	4.143835709052283	22.30812376949168	0.3893502097200384	-4.952555276777001	0	0	0	0	0	0	-1.540743955509789e-33	0	0	0	0	0	0	0	0	0	0	0	0	0	0	0	0	0	0	0	0
5.428390026092529	-7.827481034603108e-14	0	0	0	0.93	0	15.345652325558	-4.18893393561248	4.204464306839602	22.06807377043753	0.3851605468671342	-4.952683525990866	0	0	0	0	0	0	0	0	0	0	0	0	0	0	0	0	0	0	0	0	0	0	0	0	0	0	0
5.435495615005493	-7.827481034603209e-14	-1.39504937316356e-18	8.012050296570446e-29	5.434984333032759e-21	0.93	8.198967632034217e-22	15.1967827310503	-4.11849272350523	4.259918961705343	21.84416999382953	0.3812526887576747	-4.95282522207055	-3.635194355573035e-23	6.306442423852468e-24	-1.865402133431517e-28	-1.098649355075141e-17	0	0	-1.396483238005418e-17	-2.690531919059975e-17	2.491290636720401e-23	-1.45835351091576e-23	9.237645838276997e-21	0	-7.36167508896926e-20	-7.636710422603282e-24	2.635668163122347e-20	-1.24582667107723e-16	0	0	-5.258202011496062e-18	5.855959118824468e-19	7.777769397593824e-17	-3.625300186153806e-20	-5.944854060848416e-17	0	0	1.977146632979194e-18	-2.439952696672457e-18
5.440029859542847	-7.827481034603108e-14	0	0	0	0.93	0	15.07817310139094	-4.048222033490267	4.322550738697303	21.64514145504076	0.3777789854503774	-4.953024106254967	0	0	0	0	0	0	0	0	0	0	0	0	0	0	0	0	0	0	0	0	0	0	0	0	0	0	0
5.447872161865234	-7.827481034603108e-14	0	0	0	0.93	0	14.97243777029559	-3.976422712901214	4.379992750390413	21.45834891064938	0.3745188405325702	-4.953242039128802	0	0	0	0	0	0	0	0	0	0	0	0	0	0	0	0	0	0	0	0	0	0	0	0	0	0	0
5.458162069320679	-7.827481034603108e-14	0	0	0	0.93	0	14.88304238188728	-3.903734942228392	4.436295533503674	21.28571101967728	0.371505740921408	-4.953471633249857	0	0	0	0	0	0	0	0	0	0	0	0	0	0	0	0	0	0	0	0	0	0	0	0	0	0	0
5.462732791900635	-7.827481034603045e-14	0	0	0	0.93	0	14.80827757019445	-3.830423133794933	4.491349897472133	21.12560215521691	0.3687113140749452	-4.953689502090009	0	0	-9.287777503833373e-36	-1.846360826475383e-35	0	0	0	0	0	0	0	0	0	0	0	0	0	0	0	0	0	0	0	0	0	0	-1.368064448229124e-37
5.468783140182495	-7.827481034603275e-14	-1.026606256574179e-17	4.140027608484448e-26	-7.963675757422791e-19	0.93	1.077264744397341e-18	14.74661970846305	-3.756566740766871	4.54516943193092	20.97713959274496	0.3661201535438619	-4.953873415675345	1.144903326677915e-21	-6.954542288507737e-24	1.046462357347089e-30	-8.956515041501383e-24	0	3.784680497363246e-17	6.605513696507163e-19	-8.129292287107418e-18	2.39547002767729e-23	1.978026640412966e-23	-3.510982127189489e-19	0	-6.408322218373507e-19	-4.04177756677217e-26	-2.767280347081849e-21	-2.792994282960542e-17	3.78468843899468e-17	3.784644297147432e-17	4.665714307078082e-20	9.729437463005531e-19	-5.106594699733275e-18	-3.77416406962987e-22	-1.049025170235805e-17	3.784689121806346e-17	3.784763974231873e-17	-4.128523145359453e-19	1.109269093730453e-17
5.489808082580566	-7.827481034603116e-14	-2.689070766647149e-19	2.415569921414813e-28	2.094551093394317e-21	0.93	-4.330994296860302e-22	14.68933389273266	-3.680940597452032	4.596295932488277	20.81661682643795	0.3633185027473953	-4.954011977508962	-1.235078248713967e-21	9.808414493975232e-24	-1.948688982738557e-29	-1.873314602025062e-22	0	4.051098745057023e-16	7.070501142220336e-18	-2.362714602133514e-17	-5.520261445694035e-24	-7.246749947688736e-24	-3.579281583847563e-20	0	8.681410402647697e-18	2.367011921414575e-24	-9.861560708748824e-16	-1.073736618434078e-15	4.051098471775178e-16	4.051067114191019e-16	-2.335879371706981e-21	-2.795726420325235e-20	7.403646556528322e-17	1.722380554969181e-20	1.753126821991697e-17	4.051113317287442e-16	4.051143145436238e-16	-3.605790933878866e-20	-9.050247891227367e-20
5.504215478897095	-7.827481034603059e-14	6.356025069192229e-30	1.655527469104555e-27	1.024843648767334e-21	0.93	-3.559050196974797e-22	14.65600523102412	-3.607932986034529	4.647915878566794	20.70727910735487	0.3614101995527748	-4.954072038486331	-1.889766004031763e-14	-1.706210665735807e-16	3.595986046404718e-19	-1.024210493923017e-16	1.166955334549422e-17	7.977709777182377e-16	2.789021510808976e-17	-1.269287654516429e-15	-1.831099702890857e-15	-3.100145569032518e-15	-7.206277335551956e-16	-1.388990064374485e-15	-5.808411700042432e-16	1.429960754706106e-15	-8.869553800644502e-16	1.682857753737039e-15	7.976008255724908e-16	7.976006385037712e-16	-1.200768545095606e-22	-3.465288871020954e-21	-2.213524880894215e-15	-4.736605520979786e-16	-7.581162600618538e-16	7.976163769953258e-16	7.97599842972738e-16	3.841727493217621e-23	-1.854842824371601e-21
5.553400278091431	-7.827481034603108e-14	0	0	0	0.93	0	14.62377946277999	-3.533576526325187	4.696820008060751	20.58422103223259	0.3592624309707246	-4.954155996004635	0	0	0	0	0	0	0	0	0	0	0	0	0	0	0	0	0	0	0	0	0	0	0	0	0	0	0
5.560116767883301	-7.827481034603108e-14	0	0	0	0.93	0	14.59914591515895	-3.45994474179812	4.743694363485164	20.46886883992841	0.357249155415623	-4.95422748567007	0	0	0	0	0	1.052357267868557e-38	3.673419846319648e-40	0	0	0	0	0	0	0	0	0	0	0	0	0	0	0	0	0	0	0	0
